<svg xmlns="http://www.w3.org/2000/svg" viewBox="0 0 64 64" role="img" aria-label="Financeiro Dra Fernanda Sarelli">
  <defs>
    <linearGradient id="g" x1="0" x2="1" y1="0" y2="1">
      <stop offset="0%" stop-color="#ec4899"/>
      <stop offset="55%" stop-color="#fb7185"/>
      <stop offset="100%" stop-color="#a855f7"/>
    </linearGradient>
  </defs>
  <rect x="4" y="4" width="56" height="56" rx="16" fill="#070510"/>
  <rect x="6.5" y="6.5" width="51" height="51" rx="14" fill="url(#g)" opacity="0.15"/>
  <path d="M20 25.5h24c2.2 0 4 1.8 4 4v13c0 2.2-1.8 4-4 4H20c-2.2 0-4-1.8-4-4v-13c0-2.2 1.8-4 4-4Z" fill="none" stroke="url(#g)" stroke-width="3"/>
  <path d="M27 25.5v-2.3c0-2.8 2.2-5 5-5s5 2.2 5 5v2.3" fill="none" stroke="#fbcfe8" stroke-width="3" stroke-linecap="round"/>
  <circle cx="32" cy="35.5" r="2.1" fill="#fbcfe8"/>
  <path d="M32 37.6v3.9" stroke="#fbcfe8" stroke-width="2.4" stroke-linecap="round"/>
</svg>
